<svg width="288" height="112" viewBox="0 0 288 112" fill="none" xmlns="http://www.w3.org/2000/svg">
<path d="M69.0958 89.7086C72.5773 95.6484 75.3127 103.079 77.3021 112C93.0278 97.5782 97.8828 81.7466 91.8673 64.5052C85.0465 74.1197 77.456 82.5208 69.0958 89.7086ZM31.5105 97.3009C32.9315 96.0528 34.3525 94.7123 35.7735 93.2794C34.8025 95.6137 34.2933 97.844 34.246 99.9703C34.2223 102.212 34.7315 104.373 35.7735 106.453C36.1761 107.216 36.6616 107.99 37.23 108.776L46.7862 99.4503C49.794 96.284 50.3624 92.9096 48.4914 89.3273L23.2688 64.7132C19.5979 62.8873 16.1401 63.442 12.8955 66.3772L3.33933 75.7029C4.14456 76.2575 4.94979 76.7429 5.75502 77.1589C7.83915 78.1296 10.0417 78.6149 12.3626 78.6149C14.5415 78.5687 16.8269 78.0718 19.2189 77.1242C17.7269 78.4878 16.3533 79.8745 15.0981 81.2844C14.2455 82.1626 13.4521 83.0524 12.7179 83.9538C11.1548 85.849 9.73381 87.7904 8.45491 89.778C7.7681 90.818 7.12865 91.858 6.53657 92.8981C5.92081 94.0074 5.34057 95.1052 4.79586 96.1915C4.27482 97.3933 3.77747 98.5951 3.30381 99.797C2.85383 101.022 2.43937 102.281 2.06044 103.576C1.68151 104.87 1.34994 106.21 1.06575 107.597C0.828913 108.938 0.627602 110.267 0.461819 111.584C1.83545 111.445 3.19723 111.249 4.54718 110.995C5.99185 110.74 7.37733 110.428 8.70359 110.059C10.0299 109.689 11.3206 109.284 12.5758 108.845C13.8073 108.383 15.027 107.886 16.2349 107.355C17.3716 106.846 18.5084 106.291 19.6452 105.69C20.6873 105.09 21.7531 104.466 22.8425 103.818C24.8556 102.547 26.8331 101.149 28.7751 99.6236C29.6751 98.884 30.5869 98.1098 31.5105 97.3009ZM0 36.5629C9.14173 38.5043 16.7559 41.1738 22.8425 44.5712C30.208 36.4127 38.8168 29.0054 48.6691 22.3492C31.0014 16.4787 14.7783 21.2167 0 36.5629ZM269.989 20.0264C266.863 20.1882 265.169 20.4655 264.909 20.8584C264.743 21.5518 264.708 30.0338 264.802 46.3046C264.897 46.4664 266.732 46.5357 270.309 46.5126L275.779 46.3046C275.922 46.2121 275.886 42.0751 275.673 33.8935C275.839 31.5823 276.904 30.4036 278.87 30.3574C280.007 30.3112 281.333 30.5076 282.849 30.9468C283.37 30.2534 283.855 28.4045 284.305 25.3999C284.755 22.326 284.72 20.6273 284.199 20.3038C279.77 19.7491 276.727 20.8931 275.069 23.7359L275.14 20.2344C274.832 19.9802 273.115 19.9109 269.989 20.0264ZM240.077 24.2212C237.827 26.8097 236.702 29.9992 236.702 33.7895C236.702 37.5336 237.756 40.5728 239.864 42.9071C242.374 45.6806 246.069 47.0673 250.948 47.0673C252.89 47.0673 254.808 46.7553 256.703 46.1312C258.337 45.5997 259.568 44.9641 260.397 44.2245C260.397 43.8316 259.947 42.6991 259.047 40.8271C258.147 38.9781 257.532 37.8688 257.2 37.499C255.234 38.4466 253.316 38.9203 251.445 38.9203C248.342 38.9203 246.791 37.915 246.791 35.9043C253.92 36.0429 258.763 35.9389 261.321 35.5922C261.629 34.5753 261.783 33.1771 261.783 31.3974C261.783 28.2542 260.764 25.5964 258.728 23.4239C256.501 21.0896 253.6 19.9224 250.024 19.9224C245.879 19.9224 242.564 21.3553 240.077 24.2212ZM246.685 30.2881C246.685 29.248 246.992 28.4045 247.608 27.7573C248.224 27.1333 249.029 26.8213 250.024 26.8213C251.753 26.8213 252.617 27.9422 252.617 30.1841L246.685 30.2881ZM215.352 20.1304C208.815 19.83 205.511 19.7606 205.44 19.9224C205.156 20.6158 204.931 33.1771 204.765 57.6063C205.334 57.8836 207.228 57.9761 210.449 57.8836C213.552 57.8143 215.281 57.6641 215.636 57.4329C216.015 57.2018 216.133 53.0879 215.991 45.0912C217.886 46.1775 219.97 46.7206 222.243 46.7206C225.559 46.7206 228.413 45.6112 230.805 43.3925C233.434 40.9195 234.748 37.6261 234.748 33.5122C234.748 29.3752 233.564 26.0471 231.196 23.5279C229.041 21.2167 226.353 20.0611 223.132 20.0611C219.769 20.0611 217.14 20.9047 215.245 22.5918L215.352 20.1304ZM223.736 33.6855C223.736 34.8411 223.345 35.7887 222.563 36.5283C221.782 37.291 220.775 37.6723 219.544 37.6723C218.573 37.6723 217.708 37.291 216.95 36.5283C216.169 35.7194 215.778 34.7718 215.778 33.6855C215.778 32.5068 216.121 31.5592 216.808 30.8428C217.519 30.0801 218.537 29.6987 219.863 29.6987C221 29.6987 221.936 30.0801 222.67 30.8428C223.38 31.6054 223.736 32.553 223.736 33.6855ZM165.262 9.83409C161.922 9.8572 159.732 9.97276 158.69 10.1808C158.476 11.7524 158.346 16.2014 158.299 23.5279H148.352C148.21 14.6067 148.056 9.99587 147.89 9.69542C140.098 9.11762 136.143 9.18696 136.025 9.90343C135.812 11.2208 135.764 17.4148 135.883 28.4853C136.025 39.371 136.179 45.4032 136.344 46.5819C136.368 46.8362 138.085 46.9402 141.495 46.8939C144.859 46.8477 147.12 46.709 148.281 46.4779L148.458 33.9975L158.299 34.1015L158.583 46.4086C158.607 46.6859 160.549 46.8477 164.409 46.8939C168.293 46.9402 170.294 46.7206 170.413 46.2352C170.626 45.2645 170.756 39.0244 170.804 27.5147C170.827 16.0512 170.732 10.2386 170.519 10.0768C170.282 9.91498 168.53 9.83409 165.262 9.83409ZM183.948 19.5757C177.245 20.5233 173.894 21.1358 173.894 21.4131C173.87 22.1065 174.913 25.3421 177.02 31.1201C179.223 37.083 180.94 41.2315 182.171 43.5658C182.029 44.213 180.383 47.7953 177.234 54.3128C177.66 54.7751 179.069 55.4915 181.461 56.4622C184.09 57.5485 185.984 58.0685 187.145 58.0223C197.352 35.9736 202.729 23.8399 203.273 21.6211C203.297 21.4131 199.958 20.6851 193.255 19.4371C193.066 19.4602 191.372 23.967 188.175 32.9575C185.736 24.0363 184.327 19.5757 183.948 19.5757Z" fill="#5DA356"/>
<path d="M81.1743 9.73009C74.3772 12.6191 67.8051 15.9356 61.458 19.6797C51.44 25.8506 42.0496 33.0731 33.2868 41.3471L43.3048 51.1234C43.8732 51.6781 44.1455 52.3368 44.1219 53.0995C44.1219 53.8853 43.8495 54.544 43.3048 55.0755C42.7601 55.6071 42.097 55.8613 41.3154 55.8382C40.5339 55.8613 39.8589 55.5956 39.2905 55.0409L29.237 45.2299C28.5028 45.9926 27.7804 46.7437 27.0699 47.4833C22.9491 52.1057 22.9964 56.6587 27.212 61.1424L52.1505 85.4792C56.745 89.5931 61.4106 89.6393 66.1473 85.6178C75.2416 77.2514 83.2466 68.2608 90.1621 58.6463L81.7427 50.43C81.1743 49.8754 80.8901 49.2051 80.8901 48.4193C80.8901 47.6797 81.1743 47.0326 81.7427 46.4779C82.2874 45.9463 82.9505 45.669 83.7321 45.6459C84.5136 45.669 85.1886 45.9579 85.757 46.5126L93.3948 53.9662C93.8211 53.319 94.2356 52.6835 94.6382 52.0594C103.922 37.083 110.601 20.8122 114.674 3.24721C114.935 1.74494 114.805 0.832028 114.283 0.508462C113.952 1.54972e-06 113.016 -0.127116 111.477 0.127115C102.975 1.99917 94.7685 4.43748 86.8583 7.44202L92.5067 12.9542C93.0751 13.5089 93.3593 14.156 93.3593 14.8956C93.3593 15.6814 93.0751 16.3516 92.5067 16.9063C91.962 17.4379 91.2989 17.6921 90.5173 17.669C89.7358 17.6921 89.0608 17.4263 88.4924 16.8716L81.1743 9.73009ZM164.409 70.364C163.533 69.4395 162.029 68.6537 159.897 68.0066C157.458 67.267 154.723 66.8972 151.691 66.8972C145.462 66.8972 140.442 68.6422 136.629 72.1321C132.91 75.5526 131.051 79.9785 131.051 85.4098C131.051 91.1647 132.591 95.7986 135.669 99.3116C139.056 103.125 143.864 105.032 150.093 105.032C153.171 105.032 156.073 104.523 158.796 103.506C161.307 102.513 163.213 101.253 164.516 99.7276C162.124 94.9666 160.312 92.1816 159.08 91.3727C157.849 92.2509 156.949 92.8172 156.38 93.0714C154.794 93.8341 153.124 94.2154 151.371 94.2154C149.335 94.2154 147.618 93.6839 146.22 92.6207C144.397 91.1647 143.485 88.9113 143.485 85.8605C143.485 83.4338 144.302 81.4461 145.936 79.8977C147.547 78.3723 149.536 77.6096 151.904 77.6096C154.415 77.6096 157.126 78.4069 160.039 80.0017C160.797 79.3776 161.733 77.7598 162.846 75.1482C163.864 72.7214 164.385 71.1267 164.409 70.364ZM185.795 80.0363C183.521 78.1643 180.656 77.2282 177.198 77.2282C173.977 77.2282 171.171 78.1296 168.779 79.9323C166.884 81.3421 165.937 82.4515 165.937 83.2604C165.937 83.6071 166.671 84.4507 168.139 85.7912C169.584 87.0854 170.436 87.7326 170.697 87.7326C170.839 87.7326 171.372 87.3974 172.296 86.7272C173.385 86.0801 174.474 85.7565 175.564 85.7565C177.53 85.7565 178.737 86.3574 179.187 87.5592C179.377 87.9984 179.424 88.7842 179.329 89.9166C178.051 89.2464 176.665 88.9113 175.173 88.9113C172.497 88.9113 170.271 89.5815 168.494 90.922C166.671 92.3087 165.759 94.123 165.759 96.3648C165.759 101.634 168.352 104.269 173.539 104.269C176.523 104.269 178.737 103.298 180.182 101.357L180.75 103.61C186.245 103.795 189.04 103.795 189.134 103.61C189.419 103.056 189.561 98.0405 189.561 88.5646C189.561 84.936 188.305 82.0933 185.795 80.0363ZM174.995 97.7169C174.593 97.3009 174.392 96.804 174.392 96.2262C174.392 94.7932 175.114 94.0768 176.559 94.0768C177.174 94.0768 177.695 94.2848 178.122 94.7008C178.572 95.1168 178.797 95.6253 178.797 96.2262C178.797 97.636 178.051 98.3409 176.559 98.3409C175.943 98.3409 175.422 98.1329 174.995 97.7169ZM213.327 82.9831C213.777 79.9092 213.741 78.2105 213.22 77.8869C208.791 77.3322 205.748 78.4763 204.09 81.319L204.161 77.8176C203.853 77.5634 202.136 77.494 199.01 77.6096C195.884 77.7714 194.191 78.0487 193.93 78.4416C193.764 79.135 193.729 87.617 193.824 103.888C193.918 104.05 195.754 104.119 199.33 104.096L204.801 103.888C204.943 103.795 204.907 99.6583 204.694 91.4767C204.86 89.1655 205.926 87.9868 207.891 87.9406C209.028 87.8943 210.355 88.0908 211.87 88.5299C212.391 87.8366 212.877 85.9876 213.327 82.9831ZM235.636 82.9831C236.086 79.9092 236.051 78.2105 235.53 77.8869C231.101 77.3322 228.058 78.4763 226.4 81.319L226.471 77.8176C226.163 77.5634 224.446 77.494 221.32 77.6096C218.194 77.7714 216.5 78.0487 216.24 78.4416C216.074 79.135 216.039 87.617 216.133 103.888C216.228 104.05 218.063 104.119 221.64 104.096L227.11 103.888C227.253 103.795 227.217 99.6583 227.004 91.4767C227.17 89.1655 228.235 87.9868 230.201 87.9406C231.338 87.8943 232.664 88.0908 234.18 88.5299C234.701 87.8366 235.186 85.9876 235.636 82.9831ZM261.427 100.421C263.938 97.9018 265.193 94.9203 265.193 91.4767C265.193 87.2703 263.808 83.8729 261.037 81.2844C258.384 78.7883 255.045 77.5402 251.019 77.5402C246.898 77.5402 243.487 78.8923 240.788 81.5964C238.277 84.1618 237.022 87.1779 237.022 90.6447C237.022 94.851 238.395 98.26 241.143 100.872C243.795 103.345 247.123 104.581 251.125 104.581C255.317 104.512 258.751 103.125 261.427 100.421ZM248.106 94.5621C247.348 93.7301 246.969 92.7247 246.969 91.546C246.969 88.449 248.496 86.993 251.551 87.1779C253.967 87.3166 255.175 88.7148 255.175 91.3727C255.175 94.4003 253.624 95.8564 250.521 95.7408C249.621 95.7177 248.816 95.3248 248.106 94.5621ZM267.04 85.4792C267.206 85.6872 268.225 85.7796 270.096 85.7565C269.977 91.0029 269.918 94.3657 269.918 95.8448C269.918 98.5951 270.759 100.71 272.44 102.189C274.169 103.761 276.644 104.546 279.865 104.546C283.938 104.546 286.65 103.657 288 101.877C287.953 101.045 287.68 99.6583 287.183 97.7169C286.638 95.6368 286.2 94.5737 285.868 94.5274C285.632 94.5043 285.158 94.6546 284.448 94.9781C283.69 95.3017 283.038 95.4635 282.494 95.4635C281.073 95.4635 280.362 94.7586 280.362 93.3487L280.433 86.1725C280.433 86.0338 281.345 85.9645 283.169 85.9645C285.063 85.9645 286.082 85.8258 286.224 85.5485C286.508 81.2728 286.472 78.8576 286.117 78.3029C285.762 77.7714 283.927 77.6327 280.611 77.8869C280.8 73.4032 280.8 71.0689 280.611 70.884C274.335 71.1383 271.031 71.4156 270.699 71.7161C270.51 71.901 270.427 72.9294 270.451 74.8015V77.7136C268.319 77.7829 267.182 77.8176 267.04 77.8176C266.898 77.8176 266.898 80.3714 267.04 85.4792Z" fill="#6BB963"/>
</svg>
