<svg width="340" height="128" viewBox="0 0 340 128" fill="none" xmlns="http://www.w3.org/2000/svg">
<path fill-rule="evenodd" clip-rule="evenodd" d="M187.985 77.7218C190.382 78.4614 192.074 79.3595 193.06 80.416C193.034 81.2877 192.447 83.1102 191.302 85.8836C190.049 88.8683 188.997 90.7173 188.144 91.4305C184.867 89.6079 181.817 88.6967 178.992 88.6967C176.328 88.6967 174.09 89.5683 172.278 91.3116C170.44 93.0813 169.521 95.3529 169.521 98.1263C169.521 101.613 170.546 104.188 172.598 105.852C174.17 107.067 176.101 107.675 178.393 107.675C180.364 107.675 182.243 107.239 184.028 106.367C184.667 106.077 185.68 105.43 187.065 104.426C188.451 105.35 190.489 108.533 193.18 113.974C191.715 115.718 189.57 117.157 186.746 118.293C183.682 119.455 180.418 120.036 176.954 120.036C169.947 120.036 164.538 117.857 160.728 113.499C157.264 109.484 155.533 104.188 155.533 97.6112C155.533 91.404 157.624 86.3459 161.807 82.4367C166.097 78.4482 171.745 76.454 178.753 76.454C182.163 76.454 185.24 76.8766 187.985 77.7218ZM207.448 88.2608C211.338 88.2608 214.562 89.3306 217.119 91.4701C219.944 93.8209 221.356 97.0697 221.356 101.217C221.356 112.046 221.196 117.778 220.876 118.412C220.77 118.623 217.626 118.623 211.444 118.412L210.805 115.837C209.18 118.055 206.688 119.165 203.331 119.165C197.496 119.165 194.579 116.154 194.579 110.131C194.579 107.569 195.605 105.496 197.656 103.911C199.654 102.379 202.159 101.613 205.17 101.613C206.848 101.613 208.407 101.996 209.846 102.762C209.952 101.468 209.899 100.57 209.686 100.068C209.18 98.6942 207.821 98.0074 205.609 98.0074C204.384 98.0074 203.158 98.3772 201.933 99.1168C200.893 99.8828 200.294 100.266 200.134 100.266C199.841 100.266 198.882 99.5262 197.257 98.0471C195.605 96.5151 194.779 95.551 194.779 95.1548C194.779 94.2303 195.844 92.9624 197.976 91.3512C200.667 89.291 203.824 88.2608 207.448 88.2608ZM204.29 109.973C204.29 110.633 204.517 111.201 204.97 111.676C205.449 112.152 206.036 112.39 206.728 112.39C208.407 112.39 209.246 111.584 209.246 109.973C209.246 109.286 208.993 108.705 208.487 108.229C208.007 107.754 207.421 107.516 206.728 107.516C205.103 107.516 204.29 108.335 204.29 109.973ZM247.973 89.0136C248.559 89.3834 248.599 91.3248 248.093 94.8378C247.586 98.2716 247.04 100.385 246.454 101.177C244.749 100.675 243.257 100.451 241.978 100.504C239.766 100.556 238.568 101.903 238.381 104.545C238.621 113.895 238.661 118.623 238.501 118.729L232.346 118.967C228.323 118.993 226.258 118.914 226.152 118.729C226.045 100.134 226.085 90.44 226.271 89.6475C226.565 89.1985 228.47 88.8815 231.987 88.6967C235.504 88.5646 237.435 88.6438 237.782 88.9344L237.702 92.936C239.567 89.6872 242.99 88.3797 247.973 89.0136ZM273.071 89.0136C273.657 89.3834 273.697 91.3248 273.191 94.8378C272.685 98.2716 272.139 100.385 271.552 101.177C269.847 100.675 268.355 100.451 267.076 100.504C264.865 100.556 263.666 101.903 263.479 104.545C263.719 113.895 263.759 118.623 263.599 118.729L257.445 118.967C253.421 118.993 251.356 118.914 251.25 118.729C251.143 100.134 251.183 90.44 251.37 89.6475C251.663 89.1985 253.568 88.8815 257.085 88.6967C260.602 88.5646 262.533 88.6438 262.88 88.9344L262.8 92.936C264.665 89.6872 268.089 88.3797 273.071 89.0136ZM306.442 104.545C306.442 108.48 305.03 111.888 302.206 114.767C299.195 117.857 295.332 119.442 290.616 119.521C286.113 119.521 282.37 118.108 279.386 115.282C276.295 112.297 274.75 108.401 274.75 103.594C274.75 99.6319 276.162 96.1849 278.986 93.253C282.023 90.1626 285.86 88.6174 290.496 88.6174C295.025 88.6174 298.782 90.0437 301.766 92.8964C304.884 95.8547 306.442 99.7375 306.442 104.545ZM285.94 104.624C285.94 105.971 286.366 107.12 287.219 108.071C288.018 108.943 288.924 109.392 289.936 109.418C293.427 109.55 295.172 107.886 295.172 104.426C295.172 101.388 293.813 99.7903 291.095 99.6319C287.658 99.4206 285.94 101.085 285.94 104.624ZM311.957 98.0074C309.853 98.0338 308.707 97.9282 308.52 97.6905C308.36 91.8531 308.36 88.9344 308.52 88.9344C308.68 88.9344 309.959 88.8948 312.357 88.8155V85.4874C312.33 83.3479 312.424 82.1725 312.637 81.9612C313.01 81.6178 316.727 81.3009 323.787 81.0103C324 81.2216 324 83.8894 323.787 89.0136C327.517 88.7231 329.582 88.8815 329.982 89.4891C330.382 90.123 330.421 92.8832 330.102 97.7697C329.942 98.0867 328.796 98.2452 326.665 98.2452C324.613 98.2452 323.587 98.3244 323.587 98.4829L323.507 106.684C323.507 108.296 324.307 109.101 325.905 109.101C326.518 109.101 327.251 108.916 328.103 108.546C328.903 108.177 329.436 108.005 329.702 108.031C330.075 108.084 330.568 109.299 331.181 111.676C331.74 113.895 332.047 115.48 332.1 116.431C330.581 118.465 327.531 119.482 322.948 119.482C319.324 119.482 316.54 118.584 314.595 116.787C312.703 115.097 311.758 112.68 311.758 109.537C311.758 107.846 311.824 104.003 311.957 98.0074Z" fill="#74C059"/>
<path d="M99.4211 11.1201C91.7744 14.4218 84.3807 18.2121 77.2402 22.4911C65.97 29.5435 55.4058 37.7978 45.5476 47.2538L56.8179 58.4267C57.4573 59.0607 57.7637 59.8135 57.7371 60.6851C57.7371 61.5832 57.4307 62.3359 56.8179 62.9435C56.2051 63.551 55.4591 63.8415 54.5798 63.8151C53.7006 63.8415 52.9412 63.5378 52.3018 62.9038L40.9916 51.6913C40.1656 52.5629 39.353 53.4214 38.5537 54.2666C33.9177 59.5493 33.971 64.7528 38.7135 69.877L66.7693 97.6905C71.9382 102.392 77.187 102.445 82.5157 97.8489C92.7468 88.2872 101.752 78.0124 109.532 67.0244L100.061 57.6343C99.4211 57.0004 99.1014 56.2344 99.1014 55.3364C99.1014 54.4911 99.4211 53.7515 100.061 53.1176C100.673 52.5101 101.419 52.1931 102.299 52.1667C103.178 52.1931 103.937 52.5233 104.577 53.1572L113.169 61.6756C113.649 60.936 114.115 60.2097 114.568 59.4965C125.012 42.3805 132.526 23.7854 137.109 3.71109C137.402 1.99421 137.255 0.950882 136.669 0.581092C136.296 -5.89105e-06 135.243 -0.145283 133.512 0.145266C123.947 2.28476 114.715 5.07139 105.816 8.50515L112.17 14.8048C112.81 15.4387 113.129 16.1783 113.129 17.0235C113.129 17.9216 112.81 18.6876 112.17 19.3215C111.557 19.929 110.811 20.2196 109.932 20.1931C109.053 20.2196 108.293 19.9158 107.654 19.2819L99.4211 11.1201Z" fill="#B9FFA1"/>
<path fill-rule="evenodd" clip-rule="evenodd" d="M306.122 23.8382C306.416 23.3892 308.321 23.0722 311.838 22.8873C315.354 22.7553 317.286 22.8345 317.633 23.125L317.553 27.1267C319.418 23.8778 322.841 22.5704 327.824 23.2043C328.41 23.5741 328.45 25.5155 327.944 29.0285C327.437 32.4622 326.891 34.5753 326.305 35.3677C324.6 34.8659 323.108 34.6413 321.829 34.6942C319.617 34.747 318.419 36.0941 318.232 38.7355C318.472 48.0858 318.512 52.8139 318.352 52.9195L312.197 53.1572C308.174 53.1837 306.109 53.1044 306.003 52.9195C305.896 34.3244 305.936 24.6306 306.122 23.8382ZM274.39 38.6166C274.39 34.2848 275.655 30.6397 278.187 27.6814C280.984 24.4061 284.714 22.7685 289.377 22.7685C293.4 22.7685 296.664 24.1023 299.168 26.7701C301.46 29.253 302.606 32.2905 302.606 35.8828C302.606 37.9166 302.432 39.5146 302.086 40.6768C299.208 41.073 293.76 41.1919 285.74 41.0334C285.74 43.3314 287.485 44.4804 290.976 44.4804C293.08 44.4804 295.239 43.9389 297.45 42.856C297.823 43.2786 298.516 44.5464 299.528 46.6595C300.541 48.799 301.047 50.0933 301.047 50.5423C300.114 51.3875 298.729 52.1139 296.89 52.7214C294.759 53.4346 292.601 53.7912 290.416 53.7912C284.927 53.7912 280.771 52.2064 277.947 49.0367C275.576 46.369 274.39 42.8956 274.39 38.6166ZM286.659 31.7227C285.967 32.4622 285.62 33.4263 285.62 34.6149L292.294 34.4961C292.294 31.934 291.322 30.6529 289.377 30.6529C288.258 30.6529 287.352 31.0095 286.659 31.7227ZM239.22 22.7685C239.3 22.5836 243.017 22.6628 250.371 23.0062L250.251 25.8192C252.382 23.891 255.34 22.9269 259.123 22.9269C262.747 22.9269 265.771 24.2476 268.195 26.889C270.86 29.768 272.192 33.5716 272.192 38.2996C272.192 43.0012 270.713 46.7652 267.756 49.5914C265.065 52.1271 261.854 53.395 258.124 53.395C255.566 53.395 253.222 52.7742 251.09 51.5328C251.25 60.6719 251.117 65.3735 250.69 65.6376C250.291 65.9018 248.346 66.0735 244.855 66.1527C241.232 66.2584 239.1 66.1527 238.461 65.8357C238.647 37.9166 238.901 23.5609 239.22 22.7685ZM258.484 41.7466C259.363 40.9014 259.803 39.8184 259.803 38.4977C259.803 37.2035 259.403 36.1205 258.604 35.2489C257.778 34.3772 256.725 33.9414 255.446 33.9414C253.954 33.9414 252.809 34.3772 252.009 35.2489C251.237 36.0677 250.85 37.1506 250.85 38.4977C250.85 39.7392 251.29 40.8221 252.169 41.7466C253.022 42.6182 253.994 43.0541 255.087 43.0541C256.472 43.0541 257.604 42.6182 258.484 41.7466ZM186.626 11.6352C187.798 11.3974 190.263 11.2654 194.019 11.239C197.696 11.239 199.668 11.3314 199.934 11.5163C200.174 11.7012 200.281 18.3442 200.254 31.4453C200.201 44.5993 200.054 51.7309 199.814 52.8403C199.681 53.395 197.43 53.6459 193.06 53.5931C188.717 53.5402 186.532 53.3553 186.506 53.0384L186.186 38.9732L175.116 38.8543L174.916 53.1176C173.61 53.3818 171.066 53.5402 167.282 53.5931C163.446 53.6459 161.514 53.527 161.487 53.2365C161.301 51.8894 161.128 44.9955 160.968 32.5547C160.835 19.9026 160.888 12.8238 161.128 11.3182C161.261 10.4994 165.71 10.4201 174.476 11.0805C174.663 11.4238 174.836 16.6933 174.996 26.889H186.186C186.239 18.5159 186.386 13.4313 186.626 11.6352ZM203.731 24.4721C203.731 24.1552 207.501 23.4552 215.041 22.3723C215.467 22.3723 217.053 27.4701 219.797 37.6657C223.394 27.3908 225.299 22.2402 225.512 22.2138C233.052 23.6401 236.809 24.4721 236.782 24.7099C236.17 27.2456 230.121 41.1127 218.638 66.3112C217.333 66.364 215.201 65.7697 212.244 64.5283C209.553 63.4189 207.967 62.6001 207.488 62.0718C211.031 54.6232 212.883 50.5291 213.043 49.7895C211.657 47.1217 209.726 42.3805 207.248 35.5658C204.877 28.9624 203.704 25.2645 203.731 24.4721Z" fill="#66B348"/>
<path d="M8.1 41.7862C18.3844 44.0049 26.9504 47.0557 33.7978 50.9385C42.084 41.6145 51.7689 33.149 62.8527 25.5419C42.9765 18.8328 24.7256 24.2476 8.1 41.7862Z" fill="#74C059"/>
<path d="M43.5494 111.201C45.148 109.775 46.7466 108.243 48.3452 106.605C47.2528 109.273 46.68 111.822 46.6267 114.252C46.6001 116.814 47.1729 119.284 48.3452 121.661C48.7982 122.532 49.3444 123.417 49.9838 124.315L60.7345 113.657C64.1183 110.039 64.7577 106.182 62.6529 102.088L34.2774 73.9579C30.1476 71.8712 26.2576 72.5052 22.6075 75.8597L11.8567 86.5175C12.7626 87.1515 13.6685 87.7061 14.5744 88.1816C16.919 89.291 19.3969 89.8456 22.008 89.8456C24.4592 89.7928 27.0303 89.2249 29.7213 88.142C28.0428 89.7004 26.4974 91.2852 25.0853 92.8964C24.1262 93.9001 23.2336 94.917 22.4076 95.9472C20.6491 98.1131 19.0505 100.332 17.6118 102.603C16.8391 103.792 16.1197 104.981 15.4536 106.169C14.7609 107.437 14.1081 108.692 13.4953 109.933C12.9092 111.307 12.3497 112.68 11.8168 114.054C11.3106 115.454 10.8443 116.893 10.418 118.372C9.99169 119.851 9.61869 121.383 9.29896 122.968C9.03253 124.5 8.80605 126.019 8.61954 127.525C10.1649 127.366 11.6969 127.142 13.2156 126.851C14.8408 126.56 16.3995 126.204 17.8915 125.781C19.3836 125.359 20.8357 124.896 22.2478 124.395C23.6332 123.866 25.0054 123.298 26.3642 122.691C27.6431 122.11 28.922 121.476 30.2009 120.789C31.3732 120.102 32.5722 119.389 33.7978 118.65C36.0625 117.197 38.2872 115.599 40.472 113.856C41.4845 113.01 42.5103 112.125 43.5494 111.201Z" fill="#74C059"/>
<path d="M85.8328 102.524C89.7494 109.312 92.8268 117.804 95.0648 128C112.756 111.518 118.218 93.4247 111.451 73.7202C103.777 84.7082 95.238 94.3095 85.8328 102.524Z" fill="#74C059"/>
</svg>
