<svg width="380" height="144" viewBox="0 0 380 144" fill="none" xmlns="http://www.w3.org/2000/svg">
<path fill-rule="evenodd" clip-rule="evenodd" d="M210.1 87.3362C212.78 88.1628 214.671 89.1665 215.773 90.3473C215.743 91.3215 215.088 93.3584 213.808 96.4582C212.408 99.794 211.232 101.861 210.279 102.658C206.616 100.621 203.207 99.6021 200.05 99.6021C197.072 99.6021 194.571 100.576 192.546 102.525C190.491 104.503 189.464 107.041 189.464 110.141C189.464 114.038 190.611 116.916 192.904 118.776C194.66 120.134 196.819 120.813 199.38 120.813C201.584 120.813 203.683 120.326 205.678 119.352C206.393 119.027 207.525 118.304 209.073 117.182C210.622 118.215 212.9 121.772 215.907 127.854C214.269 129.802 211.872 131.411 208.716 132.68C205.291 133.979 201.643 134.629 197.772 134.629C189.941 134.629 183.896 132.193 179.637 127.322C175.766 122.835 173.831 116.916 173.831 109.565C173.831 102.628 176.168 96.9748 180.843 92.6057C185.638 88.148 191.951 85.9191 199.782 85.9191C203.594 85.9191 207.033 86.3915 210.1 87.3362ZM231.853 99.115C236.201 99.115 239.804 100.311 242.663 102.702C245.819 105.329 247.398 108.96 247.398 113.595C247.398 125.699 247.219 132.105 246.862 132.813C246.742 133.049 243.229 133.049 236.32 132.813L235.605 129.935C233.789 132.415 231.005 133.655 227.253 133.655C220.731 133.655 217.47 130.289 217.47 123.558C217.47 120.695 218.617 118.377 220.91 116.606C223.143 114.894 225.942 114.038 229.307 114.038C231.183 114.038 232.925 114.466 234.533 115.322C234.652 113.876 234.593 112.872 234.355 112.311C233.789 110.776 232.27 110.008 229.799 110.008C228.429 110.008 227.059 110.422 225.689 111.248C224.528 112.104 223.858 112.532 223.679 112.532C223.352 112.532 222.28 111.706 220.463 110.053C218.617 108.34 217.694 107.263 217.694 106.82C217.694 105.787 218.885 104.37 221.267 102.569C224.275 100.266 227.804 99.115 231.853 99.115ZM228.325 123.381C228.325 124.119 228.578 124.754 229.084 125.285C229.62 125.817 230.275 126.082 231.049 126.082C232.925 126.082 233.863 125.182 233.863 123.381C233.863 122.614 233.58 121.964 233.015 121.433C232.479 120.902 231.824 120.636 231.049 120.636C229.233 120.636 228.325 121.551 228.325 123.381ZM277.146 99.9564C277.801 100.37 277.846 102.539 277.28 106.466C276.714 110.304 276.104 112.665 275.449 113.551C273.543 112.99 271.875 112.739 270.446 112.798C267.974 112.857 266.634 114.363 266.426 117.315C266.694 127.765 266.739 133.049 266.56 133.168L259.681 133.433C255.185 133.463 252.877 133.374 252.758 133.168C252.639 112.385 252.683 101.551 252.892 100.665C253.219 100.163 255.348 99.8088 259.279 99.6021C263.21 99.4545 265.369 99.5431 265.756 99.8678L265.667 104.34C267.751 100.709 271.577 99.2479 277.146 99.9564ZM305.197 99.9564C305.852 100.37 305.897 102.539 305.331 106.466C304.765 110.304 304.155 112.665 303.5 113.551C301.594 112.99 299.926 112.739 298.497 112.798C296.025 112.857 294.685 114.363 294.477 117.315C294.745 127.765 294.79 133.049 294.611 133.168L287.732 133.433C283.236 133.463 280.928 133.374 280.809 133.168C280.69 112.385 280.734 101.551 280.943 100.665C281.27 100.163 283.399 99.8088 287.33 99.6021C291.261 99.4545 293.42 99.5431 293.807 99.8678L293.718 104.34C295.802 100.709 299.629 99.2479 305.197 99.9564ZM342.494 117.315C342.494 121.713 340.916 125.522 337.76 128.739C334.395 132.193 330.077 133.965 324.806 134.053C319.773 134.053 315.59 132.474 312.254 129.315C308.8 125.979 307.073 121.625 307.073 116.252C307.073 111.824 308.651 107.971 311.808 104.695C315.203 101.241 319.491 99.5136 324.672 99.5136C329.734 99.5136 333.933 101.108 337.268 104.296C340.752 107.602 342.494 111.942 342.494 117.315ZM319.58 117.403C319.58 118.909 320.056 120.193 321.009 121.256C321.903 122.23 322.915 122.732 324.047 122.761C327.948 122.909 329.898 121.049 329.898 117.182C329.898 113.787 328.379 112.001 325.342 111.824C321.501 111.588 319.58 113.448 319.58 117.403ZM348.658 110.008C346.306 110.038 345.025 109.92 344.817 109.654C344.638 103.13 344.638 99.8678 344.817 99.8678C344.996 99.8678 346.425 99.8235 349.105 99.735V96.0153C349.075 93.6241 349.179 92.3105 349.418 92.0743C349.835 91.6905 353.989 91.3363 361.88 91.0115C362.118 91.2477 362.118 94.2293 361.88 99.9564C366.049 99.6317 368.357 99.8088 368.803 100.488C369.25 101.196 369.295 104.281 368.937 109.743C368.759 110.097 367.478 110.274 365.096 110.274C362.803 110.274 361.656 110.363 361.656 110.54L361.567 119.706C361.567 121.507 362.46 122.407 364.247 122.407C364.932 122.407 365.751 122.2 366.704 121.787C367.597 121.374 368.193 121.182 368.491 121.212C368.907 121.271 369.458 122.629 370.143 125.285C370.769 127.765 371.111 129.536 371.171 130.599C369.473 132.872 366.064 134.009 360.942 134.009C356.892 134.009 353.78 133.005 351.606 130.998C349.492 129.108 348.435 126.407 348.435 122.894C348.435 121.005 348.509 116.71 348.658 110.008Z" fill="#74C059"/>
<path d="M111.118 12.8989C102.571 16.5891 94.3079 20.8253 86.3273 25.6077C73.7312 33.4898 61.9241 42.7152 50.9062 53.2837L63.5024 65.7711C64.217 66.4796 64.5595 67.3209 64.5297 68.2951C64.5297 69.2988 64.1873 70.1402 63.5024 70.8191C62.8175 71.4981 61.9837 71.8229 61.001 71.7934C60.0183 71.8229 59.1696 71.4834 58.455 70.7749L45.8141 58.2432C44.891 59.2174 43.9828 60.1768 43.0894 61.1215C37.908 67.0257 37.9676 72.8413 43.2681 78.5684L74.6245 109.654C80.4015 114.909 86.2678 114.968 92.2234 109.831C103.658 99.1446 113.723 87.6609 122.419 75.3802L111.832 64.8854C111.118 64.1769 110.76 63.3208 110.76 62.3171C110.76 61.3724 111.118 60.5458 111.832 59.8373C112.517 59.1584 113.351 58.8041 114.334 58.7746C115.316 58.8041 116.165 59.1731 116.88 59.8816L126.483 69.4021C127.019 68.5756 127.54 67.7637 128.047 66.9667C139.72 47.837 148.117 27.0543 153.239 4.61828C153.566 2.69942 153.403 1.53334 152.748 1.12005C152.331 0.470583 151.154 0.308215 149.219 0.632946C138.529 3.02415 128.21 6.13862 118.264 9.97635L125.367 17.0171C126.081 17.7256 126.439 18.5522 126.439 19.4969C126.439 20.5006 126.081 21.3567 125.367 22.0652C124.682 22.7442 123.848 23.0689 122.865 23.0394C121.883 23.0689 121.034 22.7294 120.319 22.0209L111.118 12.8989Z" fill="#B9FFA1"/>
<path fill-rule="evenodd" clip-rule="evenodd" d="M342.137 27.1133C342.464 26.6114 344.594 26.2572 348.524 26.0505C352.455 25.9029 354.614 25.9915 355.001 26.3162L354.912 30.7887C356.996 27.1576 360.823 25.6963 366.391 26.4048C367.046 26.8181 367.091 28.9879 366.525 32.9142C365.959 36.7519 365.349 39.1136 364.694 39.9992C362.788 39.4383 361.12 39.1874 359.691 39.2464C357.22 39.3055 355.88 40.811 355.671 43.7631C355.939 54.2136 355.984 59.4978 355.805 59.6159L348.926 59.8816C344.43 59.9111 342.122 59.8226 342.003 59.6159C341.884 38.8331 341.928 27.9989 342.137 27.1133ZM306.671 43.6303C306.671 38.7889 308.086 34.715 310.914 31.4086C314.041 27.748 318.21 25.9177 323.421 25.9177C327.918 25.9177 331.566 27.4085 334.365 30.3901C336.926 33.1651 338.206 36.56 338.206 40.5749C338.206 42.848 338.013 44.634 337.626 45.9329C334.409 46.3758 328.32 46.5086 319.357 46.3315C319.357 48.8998 321.307 50.184 325.208 50.184C327.56 50.184 329.972 49.5788 332.444 48.3684C332.861 48.8408 333.635 50.2578 334.767 52.6195C335.898 55.0107 336.464 56.4572 336.464 56.959C335.422 57.9037 333.873 58.7155 331.819 59.3945C329.437 60.1916 327.024 60.5901 324.583 60.5901C318.448 60.5901 313.803 58.8189 310.646 55.2763C307.996 52.2947 306.671 48.4127 306.671 43.6303ZM320.384 35.9253C319.61 36.7519 319.223 37.8294 319.223 39.1579L326.682 39.025C326.682 36.1615 325.595 34.7297 323.421 34.7297C322.171 34.7297 321.158 35.1282 320.384 35.9253ZM267.364 25.9177C267.453 25.711 271.607 25.7996 279.826 26.1834L279.692 29.3274C282.074 27.1723 285.38 26.0948 289.608 26.0948C293.658 26.0948 297.038 27.5709 299.748 30.523C302.725 33.7408 304.214 37.9918 304.214 43.276C304.214 48.5308 302.562 52.7375 299.256 55.8963C296.249 58.7303 292.66 60.1473 288.492 60.1473C285.633 60.1473 283.012 59.4536 280.63 58.0661C280.809 68.2803 280.66 73.5351 280.183 73.8303C279.737 74.1255 277.563 74.3174 273.662 74.406C269.612 74.524 267.23 74.406 266.515 74.0517C266.724 42.848 267.007 26.8033 267.364 25.9177ZM288.893 47.1285C289.876 46.1839 290.368 44.9735 290.368 43.4975C290.368 42.0509 289.921 40.8406 289.027 39.8664C288.104 38.8922 286.928 38.4051 285.499 38.4051C283.831 38.4051 282.551 38.8922 281.657 39.8664C280.794 40.7815 280.362 41.9919 280.362 43.4975C280.362 44.8849 280.853 46.0953 281.836 47.1285C282.789 48.1027 283.876 48.5898 285.097 48.5898C286.645 48.5898 287.911 48.1027 288.893 47.1285ZM208.582 13.4746C209.892 13.2089 212.646 13.0613 216.845 13.0318C220.955 13.0318 223.158 13.1351 223.456 13.3417C223.724 13.5484 223.843 20.9729 223.813 35.6153C223.754 50.3168 223.59 58.2875 223.322 59.5274C223.173 60.1473 220.657 60.4278 215.773 60.3687C210.919 60.3097 208.477 60.103 208.448 59.7488L208.09 44.0288L195.718 43.896L195.494 59.8373C194.035 60.1325 191.191 60.3097 186.963 60.3687C182.675 60.4278 180.516 60.2949 180.486 59.9702C180.278 58.4646 180.084 50.7596 179.905 36.8552C179.756 22.7147 179.816 14.803 180.084 13.1203C180.233 12.2052 185.206 12.1166 195.003 12.8546C195.211 13.2384 195.405 19.1279 195.584 30.523H208.09C208.15 21.1648 208.314 15.482 208.582 13.4746ZM227.699 27.8218C227.699 27.4675 231.913 26.6852 240.34 25.4749C240.817 25.4749 242.588 31.1724 245.656 42.5675C249.676 31.0839 251.805 25.3273 252.043 25.2978C260.47 26.8919 264.669 27.8218 264.639 28.0875C263.954 30.9215 257.195 46.42 244.36 74.5831C242.901 74.6421 240.519 73.9779 237.213 72.5904C234.206 71.3505 232.434 70.4354 231.898 69.845C235.859 61.52 237.928 56.9443 238.107 56.1177C236.558 53.1361 234.399 47.837 231.63 40.2206C228.98 32.8404 227.67 28.7074 227.699 27.8218Z" fill="#66B348"/>
<path d="M9.05295 47.1728C20.5473 49.6526 30.121 53.0623 37.774 57.4018C47.035 46.9809 57.8594 37.5195 70.2471 29.0174C48.0326 21.5191 27.6345 27.5709 9.05295 47.1728Z" fill="#74C059"/>
<path d="M48.6728 124.754C50.4595 123.16 52.2462 121.448 54.0329 119.617C52.812 122.599 52.1718 125.448 52.1122 128.164C52.0824 131.027 52.7227 133.787 54.0329 136.444C54.5391 137.419 55.1496 138.408 55.8643 139.411L67.8798 127.499C71.6616 123.455 72.3763 119.145 70.0238 114.569L38.31 83.1294C33.6944 80.7973 29.3468 81.5058 25.2672 85.2549L13.2517 97.1667C14.2641 97.8752 15.2766 98.4951 16.289 99.0265C18.9095 100.266 21.6789 100.886 24.5972 100.886C27.3368 100.827 30.2103 100.193 33.2179 98.9822C31.3419 100.724 29.6148 102.495 28.0365 104.296C26.9645 105.418 25.967 106.554 25.0438 107.706C23.0785 110.126 21.2918 112.606 19.6838 115.145C18.8202 116.473 18.0162 117.802 17.2717 119.13C16.4975 120.547 15.7679 121.95 15.083 123.337C14.4279 124.872 13.8026 126.407 13.207 127.942C12.6412 129.507 12.1201 131.116 11.6436 132.769C11.1672 134.422 10.7503 136.134 10.393 137.906C10.0952 139.618 9.84206 141.315 9.63362 142.998C11.3608 142.821 13.073 142.57 14.7704 142.245C16.5868 141.92 18.3289 141.522 19.9964 141.05C21.664 140.577 23.2869 140.061 24.8652 139.5C26.4136 138.909 27.9472 138.275 29.4659 137.596C30.8952 136.946 32.3246 136.238 33.7539 135.47C35.0642 134.703 36.4042 133.906 37.774 133.079C40.3052 131.455 42.7916 129.669 45.2334 127.721C46.365 126.776 47.5115 125.787 48.6728 124.754Z" fill="#74C059"/>
<path d="M95.9308 115.056C100.308 122.643 103.748 132.134 106.249 143.529C126.022 125.108 132.126 104.886 124.563 82.8637C115.986 95.1445 106.443 105.875 95.9308 115.056Z" fill="#74C059"/>
</svg>
