<svg width="40" height="40" viewBox="0 0 40 40" fill="none" xmlns="http://www.w3.org/2000/svg">
<path d="M25.4291 26.8483L28.2291 24.0483C28.6063 23.6759 29.0834 23.4209 29.6026 23.3144C30.1219 23.2079 30.6608 23.2544 31.1541 23.4483L34.5666 24.8108C35.0651 25.0132 35.4926 25.3586 35.7951 25.8035C36.0977 26.2484 36.2617 26.7729 36.2666 27.3108V33.5608C36.2637 33.9268 36.1868 34.2884 36.0405 34.6239C35.8941 34.9593 35.6814 35.2617 35.4152 35.5128C35.1489 35.7639 34.8346 35.9585 34.4911 36.0849C34.1476 36.2113 33.7822 36.2669 33.4166 36.2483C9.50415 34.7608 4.67915 14.5108 3.76665 6.76084C3.72429 6.38026 3.76299 5.99503 3.88021 5.63048C3.99742 5.26593 4.1905 4.93033 4.44673 4.64576C4.70296 4.36119 5.01654 4.1341 5.36684 3.97942C5.71714 3.82475 6.09622 3.74599 6.47915 3.74834H12.5166C13.0554 3.74994 13.5814 3.91268 14.0269 4.21563C14.4724 4.51858 14.8171 4.94789 15.0166 5.44834L16.3791 8.86084C16.5795 9.35218 16.6306 9.89164 16.5261 10.4119C16.4216 10.9321 16.1661 11.41 15.7916 11.7858L12.9916 14.5858C12.9916 14.5858 14.6041 25.4983 25.4291 26.8483Z" fill="#7EBD6A"/>
</svg>
