<svg width="40" height="40" viewBox="0 0 40 40" fill="none" xmlns="http://www.w3.org/2000/svg">
<path d="M20 3.21436C23.6941 3.21436 27.2369 4.68183 29.849 7.29394C32.4611 9.90605 33.9286 13.4488 33.9286 17.1429C33.9286 23.0286 29.7928 29.4429 21.6286 36.4544C21.1746 36.8443 20.5958 37.0585 19.9973 37.058C19.3988 37.0575 18.8204 36.8423 18.3671 36.4515L17.8271 35.9829C10.0243 29.1544 6.07141 22.8972 6.07141 17.1429C6.07141 13.4488 7.53888 9.90605 10.151 7.29394C12.7631 4.68183 16.3059 3.21436 20 3.21436ZM20 11.7858C18.5792 11.7858 17.2166 12.3502 16.2119 13.3549C15.2073 14.3595 14.6428 15.7221 14.6428 17.1429C14.6428 18.5637 15.2073 19.9263 16.2119 20.931C17.2166 21.9357 18.5792 22.5001 20 22.5001C21.4208 22.5001 22.7834 21.9357 23.7881 20.931C24.7927 19.9263 25.3571 18.5637 25.3571 17.1429C25.3571 15.7221 24.7927 14.3595 23.7881 13.3549C22.7834 12.3502 21.4208 11.7858 20 11.7858Z" fill="#7EBD6A"/>
</svg>
