<svg width="40" height="40" viewBox="0 0 40 40" fill="none" xmlns="http://www.w3.org/2000/svg">
<path d="M37.0833 14.3466V27.9166C37.0834 29.3002 36.5541 30.6313 35.6039 31.637C34.6537 32.6427 33.3547 33.2466 31.9733 33.325L31.6667 33.3333H9.16667C7.7831 33.3334 6.45195 32.804 5.44628 31.8538C4.44061 30.9036 3.83666 29.6046 3.75833 28.2233L3.75 27.9166V14.3466L19.8367 22.7733C20.0156 22.867 20.2146 22.916 20.4167 22.916C20.6187 22.916 20.8177 22.867 20.9967 22.7733L37.0833 14.3466ZM9.16667 6.66663H31.6667C33.0093 6.66646 34.3041 7.16495 35.3001 8.0654C36.296 8.96586 36.922 10.2041 37.0567 11.54L20.4167 20.2566L3.77667 11.54C3.90587 10.2571 4.48842 9.06249 5.41958 8.17073C6.35075 7.27897 7.56947 6.7486 8.85667 6.67496L9.16667 6.66663Z" fill="#7EBD6A"/>
</svg>
